<svg width="18" height="18" viewBox="0 0 18 18" fill="none" xmlns="http://www.w3.org/2000/svg">
<g clip-path="url(#clip0_6_788)">
<path d="M1.125 9C1.125 11.0886 1.95469 13.0916 3.43153 14.5685C4.90838 16.0453 6.91142 16.875 9 16.875C11.0886 16.875 13.0916 16.0453 14.5685 14.5685C16.0453 13.0916 16.875 11.0886 16.875 9C16.875 6.91142 16.0453 4.90838 14.5685 3.43153C13.0916 1.95469 11.0886 1.125 9 1.125C6.91142 1.125 4.90838 1.95469 3.43153 3.43153C1.95469 4.90838 1.125 6.91142 1.125 9ZM18 9C18 11.3869 17.0518 13.6761 15.364 15.364C13.6761 17.0518 11.3869 18 9 18C6.61305 18 4.32387 17.0518 2.63604 15.364C0.948212 13.6761 0 11.3869 0 9C0 6.61305 0.948212 4.32387 2.63604 2.63604C4.32387 0.948212 6.61305 0 9 0C11.3869 0 13.6761 0.948212 15.364 2.63604C17.0518 4.32387 18 6.61305 18 9ZM10.4434 4.50225V13.5H8.96738V6.00525H8.89425L6.831 7.488V6.05813L8.96738 4.50225H10.4434Z" fill="#005F6B"/>
</g>
<defs>
<clipPath id="clip0_6_788">
<rect width="18" height="18" fill="white"/>
</clipPath>
</defs>
</svg>
