<svg width="20" height="20" viewBox="0 0 20 20" fill="none" xmlns="http://www.w3.org/2000/svg">
<path d="M16.6666 4.99999C16.6666 3.19332 13.6141 1.66666 9.99998 1.66666C6.38581 1.66666 3.33331 3.19332 3.33331 4.99999V6.66666C3.33331 8.47332 6.38581 9.99999 9.99998 9.99999C13.6141 9.99999 16.6666 8.47332 16.6666 6.66666V4.99999ZM9.99998 15.8333C6.38581 15.8333 3.33331 14.3067 3.33331 12.5V15C3.33331 16.8067 6.38581 18.3333 9.99998 18.3333C13.6141 18.3333 16.6666 16.8067 16.6666 15V12.5C16.6666 14.3067 13.6141 15.8333 9.99998 15.8333Z" fill="#005F6B"/>
<path d="M16.6666 8.33333C16.6666 10.14 13.6141 11.6667 9.99998 11.6667C6.38581 11.6667 3.33331 10.14 3.33331 8.33333V10.8333C3.33331 12.64 6.38581 14.1667 9.99998 14.1667C13.6141 14.1667 16.6666 12.64 16.6666 10.8333V8.33333Z" fill="#005F6B"/>
</svg>
