<svg width="20" height="20" viewBox="0 0 20 20" fill="none" xmlns="http://www.w3.org/2000/svg">
<path d="M16.6667 4.99984C16.6667 3.19317 13.6142 1.6665 10 1.6665C6.38584 1.6665 3.33334 3.19317 3.33334 4.99984V6.6665C3.33334 8.47317 6.38584 9.99984 10 9.99984C13.6142 9.99984 16.6667 8.47317 16.6667 6.6665V4.99984ZM10 15.8332C6.38584 15.8332 3.33334 14.3065 3.33334 12.4998V14.9998C3.33334 16.8065 6.38584 18.3332 10 18.3332C13.6142 18.3332 16.6667 16.8065 16.6667 14.9998V12.4998C16.6667 14.3065 13.6142 15.8332 10 15.8332Z" fill="#005F6B"/>
<path d="M16.6667 8.3335C16.6667 10.1402 13.6142 11.6668 10 11.6668C6.38584 11.6668 3.33334 10.1402 3.33334 8.3335V10.8335C3.33334 12.6402 6.38584 14.1668 10 14.1668C13.6142 14.1668 16.6667 12.6402 16.6667 10.8335V8.3335Z" fill="#005F6B"/>
</svg>
