<svg width="20" height="20" viewBox="0 0 20 20" fill="none" xmlns="http://www.w3.org/2000/svg">
<path d="M16.6668 4.99996C16.6668 3.19329 13.6143 1.66663 10.0002 1.66663C6.386 1.66663 3.3335 3.19329 3.3335 4.99996V6.66663C3.3335 8.47329 6.386 9.99996 10.0002 9.99996C13.6143 9.99996 16.6668 8.47329 16.6668 6.66663V4.99996ZM10.0002 15.8333C6.386 15.8333 3.3335 14.3066 3.3335 12.5V15C3.3335 16.8066 6.386 18.3333 10.0002 18.3333C13.6143 18.3333 16.6668 16.8066 16.6668 15V12.5C16.6668 14.3066 13.6143 15.8333 10.0002 15.8333Z" fill="#005F6B"/>
<path d="M16.6668 8.33331C16.6668 10.14 13.6143 11.6666 10.0002 11.6666C6.386 11.6666 3.3335 10.14 3.3335 8.33331V10.8333C3.3335 12.64 6.386 14.1666 10.0002 14.1666C13.6143 14.1666 16.6668 12.64 16.6668 10.8333V8.33331Z" fill="#005F6B"/>
</svg>
