<svg width="20" height="20" viewBox="0 0 20 20" fill="none" xmlns="http://www.w3.org/2000/svg">
<path d="M16.6667 4.99996C16.6667 3.19329 13.6142 1.66663 10 1.66663C6.38587 1.66663 3.33337 3.19329 3.33337 4.99996V6.66663C3.33337 8.47329 6.38587 9.99996 10 9.99996C13.6142 9.99996 16.6667 8.47329 16.6667 6.66663V4.99996ZM10 15.8333C6.38587 15.8333 3.33337 14.3066 3.33337 12.5V15C3.33337 16.8066 6.38587 18.3333 10 18.3333C13.6142 18.3333 16.6667 16.8066 16.6667 15V12.5C16.6667 14.3066 13.6142 15.8333 10 15.8333Z" fill="#005F6B"/>
<path d="M16.6667 8.33331C16.6667 10.14 13.6142 11.6666 10 11.6666C6.38587 11.6666 3.33337 10.14 3.33337 8.33331V10.8333C3.33337 12.64 6.38587 14.1666 10 14.1666C13.6142 14.1666 16.6667 12.64 16.6667 10.8333V8.33331Z" fill="#005F6B"/>
</svg>
