<svg width="20" height="20" viewBox="0 0 20 20" fill="none" xmlns="http://www.w3.org/2000/svg">
<g clip-path="url(#clip0_739_731)">
<path d="M18.062 15.4594C17.5263 14.9818 17.0572 14.4343 16.6675 13.8316C16.2421 12.9997 15.9871 12.0912 15.9175 11.1594V8.41493C15.9212 6.95138 15.3903 5.53686 14.4246 4.43714C13.4589 3.33741 12.1248 2.62819 10.6731 2.44271V1.72604C10.6731 1.52934 10.595 1.34069 10.4559 1.2016C10.3168 1.06251 10.1281 0.984375 9.93142 0.984375C9.73472 0.984375 9.54608 1.06251 9.40699 1.2016C9.2679 1.34069 9.18976 1.52934 9.18976 1.72604V2.45382C7.75101 2.65267 6.43307 3.36618 5.48005 4.46221C4.52703 5.55824 4.0035 6.96251 4.00642 8.41493V11.1594C3.93684 12.0912 3.68186 12.9997 3.25642 13.8316C2.87358 14.4329 2.41209 14.9803 1.8842 15.4594C1.82494 15.5114 1.77745 15.5755 1.74488 15.6474C1.71231 15.7192 1.69541 15.7972 1.69531 15.876V16.6316C1.69531 16.7789 1.75384 16.9202 1.85803 17.0244C1.96222 17.1286 2.10353 17.1872 2.25087 17.1872H17.6953C17.8427 17.1872 17.984 17.1286 18.0882 17.0244C18.1923 16.9202 18.2509 16.7789 18.2509 16.6316V15.876C18.2508 15.7972 18.2339 15.7192 18.2013 15.6474C18.1687 15.5755 18.1212 15.5114 18.062 15.4594ZM2.85087 16.076C3.36776 15.5767 3.82287 15.0172 4.20642 14.4094C4.74232 13.4046 5.055 12.2961 5.12309 11.1594V8.41493C5.10106 7.76384 5.21027 7.11497 5.44423 6.50697C5.67818 5.89896 6.0321 5.34426 6.48489 4.87588C6.93769 4.4075 7.48011 4.03502 8.07986 3.78064C8.6796 3.52625 9.3244 3.39516 9.97587 3.39516C10.6273 3.39516 11.2721 3.52625 11.8719 3.78064C12.4716 4.03502 13.014 4.4075 13.4668 4.87588C13.9196 5.34426 14.2736 5.89896 14.5075 6.50697C14.7415 7.11497 14.8507 7.76384 14.8286 8.41493V11.1594C14.8967 12.2961 15.2094 13.4046 15.7453 14.4094C16.1289 15.0172 16.584 15.5767 17.1009 16.076H2.85087Z" fill="#005F6B"/>
<path d="M10.0006 19.0479C10.3506 19.0399 10.6864 18.9083 10.9487 18.6765C11.211 18.4447 11.3829 18.1276 11.4339 17.7812H8.51172C8.5642 18.137 8.74412 18.4615 9.018 18.6945C9.29188 18.9275 9.64107 19.0531 10.0006 19.0479Z" fill="#005F6B"/>
</g>
<defs>
<clipPath id="clip0_739_731">
<rect width="20" height="20" fill="white"/>
</clipPath>
</defs>
</svg>
