<svg width="16" height="17" viewBox="0 0 16 17" fill="none" xmlns="http://www.w3.org/2000/svg">
<g clip-path="url(#clip0_1_41)">
<path d="M14.4496 12.8675C14.021 12.4854 13.6458 12.0474 13.334 11.5653C12.9937 10.8998 12.7897 10.1729 12.734 9.42751V7.23195C12.737 6.06111 12.3123 4.9295 11.5397 4.04972C10.7671 3.16994 9.69989 2.60256 8.53848 2.45417V1.88084C8.53848 1.72348 8.47597 1.57256 8.3647 1.46129C8.25343 1.35002 8.10251 1.28751 7.94515 1.28751C7.78779 1.28751 7.63687 1.35002 7.5256 1.46129C7.41433 1.57256 7.35182 1.72348 7.35182 1.88084V2.46306C6.20082 2.62214 5.14647 3.19295 4.38405 4.06978C3.62163 4.9466 3.20281 6.07002 3.20515 7.23195V9.42751C3.14949 10.1729 2.9455 10.8998 2.60515 11.5653C2.29888 12.0463 1.92968 12.4843 1.50737 12.8675C1.45997 12.9092 1.42197 12.9604 1.39591 13.0179C1.36986 13.0754 1.35634 13.1377 1.35626 13.2008V13.8053C1.35626 13.9232 1.40309 14.0362 1.48644 14.1196C1.56979 14.2029 1.68283 14.2497 1.80071 14.2497H14.1563C14.2741 14.2497 14.3872 14.2029 14.4705 14.1196C14.5539 14.0362 14.6007 13.9232 14.6007 13.8053V13.2008C14.6006 13.1377 14.5871 13.0754 14.5611 13.0179C14.535 12.9604 14.497 12.9092 14.4496 12.8675ZM2.28071 13.3608C2.69422 12.9614 3.05831 12.5137 3.36515 12.0275C3.79387 11.2237 4.04401 10.3369 4.09848 9.42751V7.23195C4.08086 6.71108 4.16823 6.19199 4.35539 5.70558C4.54256 5.21918 4.82569 4.77541 5.18793 4.40071C5.55017 4.026 5.9841 3.72803 6.4639 3.52452C6.94369 3.32101 7.45954 3.21613 7.98071 3.21613C8.50188 3.21613 9.01772 3.32101 9.49752 3.52452C9.97731 3.72803 10.4112 4.026 10.7735 4.40071C11.1357 4.77541 11.4189 5.21918 11.606 5.70558C11.7932 6.19199 11.8806 6.71108 11.8629 7.23195V9.42751C11.9174 10.3369 12.1675 11.2237 12.5963 12.0275C12.9031 12.5137 13.2672 12.9614 13.6807 13.3608H2.28071Z" fill="#005F6B"/>
<path d="M8.0005 15.7383C8.28047 15.7319 8.54914 15.6266 8.75899 15.4412C8.96883 15.2557 9.10633 15.0021 9.14717 14.725H6.80939C6.85138 15.0096 6.99531 15.2692 7.21441 15.4556C7.43351 15.642 7.71286 15.7425 8.0005 15.7383Z" fill="#005F6B"/>
</g>
<defs>
<clipPath id="clip0_1_41">
<rect width="16" height="16" fill="white" transform="translate(0 0.5)"/>
</clipPath>
</defs>
</svg>
