<svg width="18" height="18" viewBox="0 0 18 18" fill="none" xmlns="http://www.w3.org/2000/svg">
<g clip-path="url(#clip0_6_805)">
<path d="M16.2558 13.9134C15.7736 13.4836 15.3515 12.9909 15.0008 12.4484C14.6179 11.6997 14.3884 10.8821 14.3258 10.0434V7.57344C14.3291 6.25625 13.8513 4.98318 12.9822 3.99343C12.113 3.00368 10.9124 2.36537 9.60579 2.19844V1.55344C9.60579 1.37641 9.53546 1.20663 9.41028 1.08145C9.2851 0.956266 9.11532 0.885941 8.93829 0.885941C8.76126 0.885941 8.59147 0.956266 8.46629 1.08145C8.34111 1.20663 8.27079 1.37641 8.27079 1.55344V2.20844C6.97592 2.3874 5.78977 3.02957 4.93205 4.01599C4.07433 5.00242 3.60315 6.26626 3.60579 7.57344V10.0434C3.54316 10.8821 3.31368 11.6997 2.93079 12.4484C2.58623 12.9896 2.17088 13.4823 1.69579 13.9134C1.64245 13.9603 1.59971 14.018 1.5704 14.0826C1.54108 14.1473 1.52588 14.2174 1.52579 14.2884V14.9684C1.52579 15.1011 1.57847 15.2282 1.67223 15.322C1.766 15.4158 1.89318 15.4684 2.02579 15.4684H15.9258C16.0584 15.4684 16.1856 15.4158 16.2793 15.322C16.3731 15.2282 16.4258 15.1011 16.4258 14.9684V14.2884C16.4257 14.2174 16.4105 14.1473 16.3812 14.0826C16.3519 14.018 16.3091 13.9603 16.2558 13.9134ZM2.56579 14.4684C3.03099 14.019 3.44059 13.5154 3.78579 12.9684C4.26809 12.0642 4.5495 11.0665 4.61079 10.0434V7.57344C4.59096 6.98746 4.68925 6.40348 4.89981 5.85627C5.11037 5.30907 5.42889 4.80983 5.83641 4.38829C6.24393 3.96675 6.73211 3.63152 7.27188 3.40258C7.81165 3.17363 8.39197 3.05564 8.97829 3.05564C9.5646 3.05564 10.1449 3.17363 10.6847 3.40258C11.2245 3.63152 11.7126 3.96675 12.1202 4.38829C12.5277 4.80983 12.8462 5.30907 13.0568 5.85627C13.2673 6.40348 13.3656 6.98746 13.3458 7.57344V10.0434C13.4071 11.0665 13.6885 12.0642 14.1708 12.9684C14.516 13.5154 14.9256 14.019 15.3908 14.4684H2.56579Z" fill="#005F6B"/>
<path d="M9.00055 17.1431C9.31552 17.1359 9.61778 17.0175 9.85385 16.8088C10.0899 16.6002 10.2446 16.3148 10.2906 16.0031H7.66055C7.70779 16.3233 7.86971 16.6154 8.1162 16.8251C8.36269 17.0348 8.67697 17.1478 9.00055 17.1431Z" fill="#005F6B"/>
</g>
<defs>
<clipPath id="clip0_6_805">
<rect width="18" height="18" fill="white"/>
</clipPath>
</defs>
</svg>
