<svg width="18" height="18" viewBox="0 0 18 18" fill="none" xmlns="http://www.w3.org/2000/svg">
<path d="M16.1599 5.95451C15.9489 5.7436 15.6628 5.62512 15.3645 5.62512C15.0662 5.62512 14.7801 5.7436 14.5691 5.95451L9.00037 11.5233L3.43162 5.95451C3.21945 5.74958 2.93527 5.63619 2.6403 5.63875C2.34532 5.64132 2.06316 5.75963 1.85458 5.96821C1.64599 6.1768 1.52768 6.45896 1.52512 6.75393C1.52255 7.04891 1.63595 7.33308 1.84087 7.54526L8.205 13.9094C8.41597 14.1203 8.70206 14.2388 9.00037 14.2388C9.29868 14.2388 9.58478 14.1203 9.79575 13.9094L16.1599 7.54526C16.3708 7.33429 16.4893 7.04819 16.4893 6.74988C16.4893 6.45158 16.3708 6.16548 16.1599 5.95451Z" fill="#005F6B"/>
</svg>
