<svg width="20" height="20" viewBox="0 0 20 20" fill="none" xmlns="http://www.w3.org/2000/svg">
<path d="M10.0013 3.33073C13.6771 3.33073 16.668 6.32156 16.668 9.9974C16.668 13.6732 13.6771 16.6641 10.0013 16.6641C6.32547 16.6641 3.33464 13.6732 3.33464 9.9974C3.33464 6.32156 6.32547 3.33073 10.0013 3.33073ZM10.0013 1.66406C5.3988 1.66406 1.66797 5.3949 1.66797 9.9974C1.66797 14.5999 5.3988 18.3307 10.0013 18.3307C14.6038 18.3307 18.3346 14.5999 18.3346 9.9974C18.3346 5.3949 14.6038 1.66406 10.0013 1.66406ZM14.168 9.16406H10.8346V5.83073H9.16797V9.16406H5.83464V10.8307H9.16797V14.1641H10.8346V10.8307H14.168V9.16406Z" fill="#005F6B"/>
</svg>
