<svg width="18" height="18" viewBox="0 0 18 18" fill="none" xmlns="http://www.w3.org/2000/svg">
<path d="M14.2875 3.6825C13.5999 2.98794 12.7809 2.43725 11.8782 2.06254C10.9756 1.68782 10.0073 1.49659 9.03001 1.5C4.93501 1.5 1.59751 4.8375 1.59751 8.9325C1.59751 10.245 1.94251 11.52 2.58751 12.645L1.53751 16.5L5.47501 15.465C6.56251 16.0575 7.78501 16.3725 9.03001 16.3725C13.125 16.3725 16.4625 13.035 16.4625 8.94C16.4625 6.9525 15.69 5.085 14.2875 3.6825ZM9.03001 15.1125C7.92001 15.1125 6.83251 14.8125 5.88001 14.25L5.65501 14.115L3.31501 14.73L3.93751 12.45L3.78751 12.2175C3.17082 11.2327 2.84336 10.0944 2.84251 8.9325C2.84251 5.5275 5.61751 2.7525 9.02251 2.7525C10.6725 2.7525 12.225 3.3975 13.3875 4.5675C13.9631 5.14047 14.4193 5.822 14.7296 6.57257C15.0398 7.32314 15.198 8.12783 15.195 8.94C15.21 12.345 12.435 15.1125 9.03001 15.1125ZM12.42 10.4925C12.2325 10.4025 11.3175 9.9525 11.1525 9.885C10.98 9.825 10.86 9.795 10.7325 9.975C10.605 10.1625 10.2525 10.5825 10.1475 10.7025C10.0425 10.83 9.93001 10.845 9.74251 10.7475C9.55501 10.6575 8.95501 10.455 8.25001 9.825C7.69501 9.33 7.32751 8.7225 7.21501 8.535C7.11001 8.3475 7.20001 8.25 7.29751 8.1525C7.38001 8.07 7.48501 7.935 7.57501 7.83C7.66501 7.725 7.70251 7.6425 7.76251 7.5225C7.82251 7.395 7.79251 7.29 7.74751 7.2C7.70251 7.11 7.32751 6.195 7.17751 5.82C7.02751 5.46 6.87001 5.505 6.75751 5.4975H6.39751C6.27001 5.4975 6.07501 5.5425 5.90251 5.73C5.73751 5.9175 5.25751 6.3675 5.25751 7.2825C5.25751 8.1975 5.92501 9.0825 6.01501 9.2025C6.10501 9.33 7.32751 11.205 9.18751 12.0075C9.63001 12.2025 9.97501 12.315 10.245 12.3975C10.6875 12.54 11.0925 12.5175 11.415 12.4725C11.775 12.42 12.5175 12.0225 12.6675 11.5875C12.825 11.1525 12.825 10.785 12.7725 10.7025C12.72 10.62 12.6075 10.5825 12.42 10.4925Z" fill="#005F6B"/>
</svg>
