<svg width="20" height="20" viewBox="0 0 20 20" fill="none" xmlns="http://www.w3.org/2000/svg">
<path d="M4.86584 8.44623C3.03126 8.88248 1.66667 10.5321 1.66667 12.5C1.66667 14.8012 3.53209 16.6666 5.83334 16.6666C6.22792 16.6666 6.61 16.6116 6.97209 16.5091M15.0229 8.44623C16.8575 8.88248 18.2217 10.5321 18.2217 12.5C18.2217 14.8012 16.3563 16.6666 14.055 16.6666C13.6604 16.6666 13.2783 16.6116 12.9167 16.5091M15 8.33331C15 5.57206 12.7613 3.33331 10 3.33331C7.23876 3.33331 5.00001 5.57206 5.00001 8.33331M7.11042 12.5496L10 15.4483L12.9717 12.5M10 8.33331V13.9741" stroke="#005F6B" stroke-width="1.66667" stroke-linecap="round" stroke-linejoin="round"/>
</svg>
