<svg width="17" height="16" viewBox="0 0 17 16" fill="none" xmlns="http://www.w3.org/2000/svg">
<path d="M2.9 7.99999C2.9 7.33725 3.43726 6.79999 4.1 6.79999C4.76274 6.79999 5.3 7.33725 5.3 7.99999C5.3 8.66273 4.76274 9.19999 4.1 9.19999C3.43726 9.19999 2.9 8.66273 2.9 7.99999Z" fill="#313131"/>
<path d="M7.3 7.99999C7.3 7.33725 7.83726 6.79999 8.5 6.79999C9.16274 6.79999 9.7 7.33725 9.7 7.99999C9.7 8.66273 9.16274 9.19999 8.5 9.19999C7.83726 9.19999 7.3 8.66273 7.3 7.99999Z" fill="#313131"/>
<path d="M12.9 6.79999C12.2373 6.79999 11.7 7.33725 11.7 7.99999C11.7 8.66273 12.2373 9.19999 12.9 9.19999C13.5627 9.19999 14.1 8.66273 14.1 7.99999C14.1 7.33725 13.5627 6.79999 12.9 6.79999Z" fill="#313131"/>
</svg>
