<svg width="17" height="16" viewBox="0 0 17 16" fill="none" xmlns="http://www.w3.org/2000/svg">
<path d="M2.90002 8C2.90002 7.33726 3.43728 6.8 4.10002 6.8C4.76277 6.8 5.30002 7.33726 5.30002 8C5.30002 8.66274 4.76277 9.2 4.10002 9.2C3.43728 9.2 2.90002 8.66274 2.90002 8Z" fill="#313131"/>
<path d="M7.30002 8C7.30002 7.33726 7.83728 6.8 8.50002 6.8C9.16277 6.8 9.70003 7.33726 9.70003 8C9.70003 8.66274 9.16277 9.2 8.50002 9.2C7.83728 9.2 7.30002 8.66274 7.30002 8Z" fill="#313131"/>
<path d="M12.9 6.8C12.2373 6.8 11.7 7.33726 11.7 8C11.7 8.66274 12.2373 9.2 12.9 9.2C13.5628 9.2 14.1 8.66274 14.1 8C14.1 7.33726 13.5628 6.8 12.9 6.8Z" fill="#313131"/>
</svg>
