<svg width="24" height="24" viewBox="0 0 24 24" fill="none" xmlns="http://www.w3.org/2000/svg">
<path d="M11.6069 2.342C11.716 2.24717 11.8558 2.19495 12.0004 2.19495C12.145 2.19495 12.2847 2.24717 12.3939 2.342L14.3419 4.034C14.4025 4.08675 14.4732 4.12677 14.5496 4.15168C14.6261 4.17659 14.7068 4.18588 14.7869 4.179L17.3589 3.955C17.5029 3.94264 17.6465 3.98266 17.7633 4.06773C17.8802 4.15279 17.9624 4.27717 17.9949 4.418L18.5769 6.932C18.5948 7.01056 18.6284 7.0847 18.6757 7.14999C18.7229 7.21528 18.7829 7.27038 18.8519 7.312L21.0639 8.642C21.1876 8.71653 21.2804 8.83322 21.325 8.97064C21.3696 9.10805 21.3632 9.25696 21.3069 9.39L20.2989 11.766C20.2675 11.84 20.2514 11.9196 20.2514 12C20.2514 12.0804 20.2675 12.16 20.2989 12.234L21.3069 14.61C21.3635 14.7432 21.3701 14.8923 21.3254 15.0299C21.2808 15.1676 21.1879 15.2844 21.0639 15.359L18.8519 16.689C18.783 16.7305 18.7231 16.7855 18.6759 16.8506C18.6286 16.9157 18.595 16.9896 18.5769 17.068L17.9949 19.582C17.9624 19.7228 17.8802 19.8472 17.7633 19.9323C17.6465 20.0173 17.5029 20.0574 17.3589 20.045L14.7869 19.821C14.7068 19.814 14.6262 19.8231 14.5498 19.8479C14.4733 19.8726 14.4026 19.9124 14.3419 19.965L12.3929 21.658C12.2837 21.7528 12.144 21.8051 11.9994 21.8051C11.8548 21.8051 11.715 21.7528 11.6059 21.658L9.65786 19.965C9.59711 19.9124 9.52641 19.8726 9.44997 19.8479C9.37353 19.8231 9.2929 19.814 9.21286 19.821L6.64086 20.045C6.49686 20.0574 6.35324 20.0173 6.23639 19.9323C6.11955 19.8472 6.03733 19.7228 6.00486 19.582L5.42286 17.068C5.40489 16.9894 5.37128 16.9153 5.32403 16.85C5.27679 16.7847 5.21687 16.7296 5.14786 16.688L2.93586 15.358C2.81208 15.2835 2.71936 15.1668 2.67471 15.0294C2.63007 14.892 2.63652 14.743 2.69286 14.61L3.70086 12.234C3.73222 12.16 3.74837 12.0804 3.74837 12C3.74837 11.9196 3.73222 11.84 3.70086 11.766L2.69286 9.39C2.63624 9.25684 2.62965 9.1077 2.6743 8.97006C2.71896 8.83242 2.81185 8.71556 2.93586 8.641L5.14786 7.311C5.21677 7.26949 5.27662 7.21455 5.32386 7.14944C5.3711 7.08433 5.40477 7.01038 5.42286 6.932L6.00486 4.418C6.03733 4.27717 6.11955 4.15279 6.23639 4.06773C6.35324 3.98266 6.49686 3.94264 6.64086 3.955L9.21286 4.179C9.29297 4.18588 9.37364 4.17659 9.45008 4.15168C9.52653 4.12677 9.59719 4.08675 9.65786 4.034L11.6069 2.342Z" stroke="white" stroke-width="1.25"/>
<path d="M9 13L11 15L16 10" stroke="white" stroke-width="1.25" stroke-linecap="round" stroke-linejoin="round"/>
</svg>
