<svg width="24" height="24" viewBox="0 0 24 24" fill="none" xmlns="http://www.w3.org/2000/svg">
<path d="M11.607 2.342C11.7161 2.24717 11.8559 2.19495 12.0005 2.19495C12.1451 2.19495 12.2848 2.24717 12.394 2.342L14.342 4.034C14.4027 4.08675 14.4733 4.12677 14.5498 4.15168C14.6262 4.17659 14.7069 4.18588 14.787 4.179L17.359 3.955C17.503 3.94264 17.6466 3.98266 17.7634 4.06773C17.8803 4.15279 17.9625 4.27717 17.995 4.418L18.577 6.932C18.5949 7.01056 18.6286 7.0847 18.6758 7.14999C18.7231 7.21528 18.783 7.27038 18.852 7.312L21.064 8.642C21.1878 8.71653 21.2805 8.83322 21.3251 8.97064C21.3698 9.10805 21.3633 9.25696 21.307 9.39L20.299 11.766C20.2676 11.84 20.2515 11.9196 20.2515 12C20.2515 12.0804 20.2676 12.16 20.299 12.234L21.307 14.61C21.3636 14.7432 21.3702 14.8923 21.3255 15.0299C21.2809 15.1676 21.188 15.2844 21.064 15.359L18.852 16.689C18.7831 16.7305 18.7232 16.7855 18.676 16.8506C18.6287 16.9157 18.5951 16.9896 18.577 17.068L17.995 19.582C17.9625 19.7228 17.8803 19.8472 17.7634 19.9323C17.6466 20.0173 17.503 20.0574 17.359 20.045L14.787 19.821C14.7069 19.814 14.6263 19.8231 14.5499 19.8479C14.4734 19.8726 14.4027 19.9124 14.342 19.965L12.393 21.658C12.2838 21.7528 12.1441 21.8051 11.9995 21.8051C11.8549 21.8051 11.7151 21.7528 11.606 21.658L9.65798 19.965C9.59723 19.9124 9.52653 19.8726 9.45009 19.8479C9.37365 19.8231 9.29302 19.814 9.21298 19.821L6.64098 20.045C6.49698 20.0574 6.35336 20.0173 6.23652 19.9323C6.11967 19.8472 6.03745 19.7228 6.00498 19.582L5.42298 17.068C5.40502 16.9894 5.3714 16.9153 5.32416 16.85C5.27691 16.7847 5.21699 16.7296 5.14798 16.688L2.93598 15.358C2.81221 15.2835 2.71948 15.1668 2.67484 15.0294C2.6302 14.892 2.63664 14.743 2.69298 14.61L3.70098 12.234C3.73234 12.16 3.7485 12.0804 3.7485 12C3.7485 11.9196 3.73234 11.84 3.70098 11.766L2.69298 9.39C2.63636 9.25684 2.62977 9.1077 2.67443 8.97006C2.71908 8.83242 2.81197 8.71556 2.93598 8.641L5.14798 7.311C5.21689 7.26949 5.27674 7.21455 5.32398 7.14944C5.37123 7.08433 5.40489 7.01038 5.42298 6.932L6.00498 4.418C6.03745 4.27717 6.11967 4.15279 6.23652 4.06773C6.35336 3.98266 6.49698 3.94264 6.64098 3.955L9.21298 4.179C9.29309 4.18588 9.37376 4.17659 9.4502 4.15168C9.52665 4.12677 9.59731 4.08675 9.65798 4.034L11.607 2.342Z" stroke="white" stroke-width="1.25"/>
<path d="M9 13L11 15L16 10" stroke="white" stroke-width="1.25" stroke-linecap="round" stroke-linejoin="round"/>
</svg>
