<svg width="18" height="18" viewBox="0 0 18 18" fill="none" xmlns="http://www.w3.org/2000/svg">
<g clip-path="url(#clip0_6_760)">
<path d="M0.385917 8.89228C0.385498 10.4046 0.780661 11.8813 1.53206 13.1829L0.314056 17.63L4.86513 16.4367C6.1239 17.122 7.53425 17.481 8.96745 17.4811H8.97122C13.7025 17.4811 17.5539 13.6312 17.5559 8.89905C17.5568 6.606 16.6646 4.44977 15.0436 2.82754C13.4229 1.20545 11.2675 0.311654 8.97087 0.310608C4.23903 0.310608 0.38794 4.16038 0.385987 8.89228" fill="url(#paint0_linear_6_760)"/>
<path d="M0.0794119 8.88949C0.0789235 10.4563 0.488249 11.9858 1.26644 13.334L0.00476074 17.9405L4.71902 16.7044C6.01795 17.4126 7.48041 17.786 8.96855 17.7866H8.97239C13.8734 17.7866 17.8631 13.7981 17.8652 8.8966C17.8661 6.52116 16.9418 4.28742 15.2629 2.60707C13.5838 0.92693 11.3512 0.000976744 8.97239 0C4.07053 0 0.0813654 3.98791 0.0794119 8.88949ZM2.88692 13.1018L2.7109 12.8223C1.97095 11.6458 1.58039 10.2862 1.58095 8.89005C1.58248 4.81598 4.89811 1.5014 8.97518 1.5014C10.9496 1.50223 12.8051 2.27191 14.2008 3.66837C15.5963 5.06498 16.3643 6.92149 16.3638 8.89605C16.3619 12.9701 13.0462 16.2851 8.97239 16.2851H8.96946C7.64297 16.2844 6.34202 15.9282 5.20746 15.255L4.93746 15.0949L2.13992 15.8283L2.88692 13.1018Z" fill="url(#paint1_linear_6_760)"/>
<path d="M6.74975 5.17312C6.58329 4.80314 6.4081 4.79568 6.2498 4.78919C6.12017 4.78361 5.97198 4.78403 5.82394 4.78403C5.67575 4.78403 5.43498 4.83977 5.23147 5.06198C5.02775 5.2844 4.4537 5.82189 4.4537 6.91507C4.4537 8.00826 5.24996 9.06482 5.36096 9.21321C5.4721 9.36133 6.89815 11.6765 9.15666 12.5671C11.0337 13.3073 11.4157 13.1601 11.823 13.123C12.2305 13.086 13.1377 12.5856 13.3228 12.0668C13.5081 11.548 13.5081 11.1033 13.4525 11.0104C13.397 10.9178 13.2488 10.8622 13.0266 10.7511C12.8044 10.64 11.7119 10.1024 11.5082 10.0282C11.3045 9.95414 11.1564 9.91717 11.0082 10.1397C10.86 10.3618 10.4345 10.8622 10.3048 11.0104C10.1753 11.1589 10.0456 11.1774 9.82343 11.0662C9.60108 10.9547 8.88547 10.7204 8.03647 9.96349C7.37591 9.37451 6.92996 8.64719 6.80033 8.4247C6.6707 8.20256 6.78645 8.08214 6.89787 7.97142C6.99771 7.87186 7.12015 7.71196 7.23136 7.58226C7.34215 7.45249 7.37912 7.35991 7.45322 7.21172C7.52738 7.0634 7.49026 6.93363 7.4348 6.82249C7.37912 6.71135 6.94733 5.61245 6.74975 5.17312Z" fill="white"/>
</g>
<defs>
<linearGradient id="paint0_linear_6_760" x1="862.406" y1="1732.25" x2="862.406" y2="0.310608" gradientUnits="userSpaceOnUse">
<stop stop-color="#1FAF38"/>
<stop offset="1" stop-color="#60D669"/>
</linearGradient>
<linearGradient id="paint1_linear_6_760" x1="893.028" y1="1794.05" x2="893.028" y2="0" gradientUnits="userSpaceOnUse">
<stop stop-color="#F9F9F9"/>
<stop offset="1" stop-color="white"/>
</linearGradient>
<clipPath id="clip0_6_760">
<rect width="17.87" height="18" fill="white"/>
</clipPath>
</defs>
</svg>
