<svg width="18" height="18" viewBox="0 0 18 18" fill="none" xmlns="http://www.w3.org/2000/svg">
<path d="M12 6V3.75H6V6H4.5V2.25H13.5V6H12ZM13.5 9.375C13.7125 9.375 13.8907 9.303 14.0347 9.159C14.1787 9.015 14.2505 8.837 14.25 8.625C14.2495 8.413 14.1775 8.235 14.034 8.091C13.8905 7.947 13.7125 7.875 13.5 7.875C13.2875 7.875 13.1095 7.947 12.966 8.091C12.8225 8.235 12.7505 8.413 12.75 8.625C12.7495 8.837 12.8215 9.01525 12.966 9.15975C13.1105 9.30425 13.2885 9.376 13.5 9.375ZM12 14.25V11.25H6V14.25H12ZM13.5 15.75H4.5V12.75H1.5V8.25C1.5 7.6125 1.71875 7.07825 2.15625 6.64725C2.59375 6.21625 3.125 6.0005 3.75 6H14.25C14.8875 6 15.422 6.21575 15.8535 6.64725C16.285 7.07875 16.5005 7.613 16.5 8.25V12.75H13.5V15.75ZM15 11.25V8.25C15 8.0375 14.928 7.8595 14.784 7.716C14.64 7.5725 14.462 7.5005 14.25 7.5H3.75C3.5375 7.5 3.3595 7.572 3.216 7.716C3.0725 7.86 3.0005 8.038 3 8.25V11.25H4.5V9.75H13.5V11.25H15Z" fill="#005F6B"/>
</svg>
