<svg width="20" height="20" viewBox="0 0 20 20" fill="none" xmlns="http://www.w3.org/2000/svg">
<path d="M17.5 9.9974L13.875 15.1224C13.7222 15.3446 13.5244 15.5182 13.2817 15.6432C13.0389 15.7682 12.7783 15.8307 12.5 15.8307H4.16667C3.70833 15.8307 3.31611 15.6677 2.99 15.3416C2.66389 15.0155 2.50056 14.623 2.5 14.1641V5.83073C2.5 5.3724 2.66333 4.98017 2.99 4.65406C3.31667 4.32795 3.70889 4.16462 4.16667 4.16406H12.5C12.7778 4.16406 13.0383 4.22656 13.2817 4.35156C13.525 4.47656 13.7228 4.65017 13.875 4.8724L17.5 9.9974ZM15.4583 9.9974L12.5 5.83073H4.16667V14.1641H12.5L15.4583 9.9974ZM4.16667 9.9974V14.1641V5.83073V9.9974Z" fill="#005F6B"/>
</svg>
