<svg width="18" height="18" viewBox="0 0 18 18" fill="none" xmlns="http://www.w3.org/2000/svg">
<path d="M9.00116 14.9977C10.5925 14.9977 12.1186 14.3655 13.2438 13.2403C14.369 12.1151 15.0012 10.589 15.0012 8.99766C15.0012 7.40636 14.369 5.88023 13.2438 4.75502C12.1186 3.6298 10.5925 2.99766 9.00116 2.99766C7.40986 2.99766 5.88374 3.6298 4.75852 4.75502C3.6333 5.88023 3.00116 7.40636 3.00116 8.99766C3.00116 10.589 3.6333 12.1151 4.75852 13.2403C5.88374 14.3655 7.40986 14.9977 9.00116 14.9977ZM9.00116 1.49766C9.98607 1.49766 10.9613 1.69165 11.8713 2.06856C12.7812 2.44547 13.608 2.99792 14.3045 3.69436C15.0009 4.39079 15.5533 5.21759 15.9303 6.12753C16.3072 7.03747 16.5012 8.01274 16.5012 8.99766C16.5012 10.9868 15.711 12.8944 14.3045 14.301C12.8979 15.7075 10.9903 16.4977 9.00116 16.4977C4.85366 16.4977 1.50116 13.1227 1.50116 8.99766C1.50116 7.00853 2.29134 5.10088 3.69786 3.69436C5.10438 2.28783 7.01204 1.49766 9.00116 1.49766ZM9.37616 5.24766V9.18516L12.7512 11.1877L12.1887 12.1102L8.25116 9.74766V5.24766H9.37616Z" fill="#005F6B"/>
</svg>
