<svg width="21" height="20" viewBox="0 0 21 20" fill="none" xmlns="http://www.w3.org/2000/svg">
<path d="M10.5013 16.6641C12.2694 16.6641 13.9651 15.9617 15.2153 14.7114C16.4656 13.4612 17.168 11.7655 17.168 9.9974C17.168 8.22929 16.4656 6.53359 15.2153 5.28335C13.9651 4.03311 12.2694 3.33073 10.5013 3.33073C8.73319 3.33073 7.0375 4.03311 5.78726 5.28335C4.53701 6.53359 3.83464 8.22929 3.83464 9.9974C3.83464 11.7655 4.53701 13.4612 5.78726 14.7114C7.0375 15.9617 8.73319 16.6641 10.5013 16.6641ZM10.5013 1.66406C11.5957 1.66406 12.6793 1.87961 13.6903 2.2984C14.7014 2.71719 15.62 3.33102 16.3939 4.10484C17.1677 4.87866 17.7815 5.79732 18.2003 6.80837C18.6191 7.81941 18.8346 8.90305 18.8346 9.9974C18.8346 12.2075 17.9567 14.3271 16.3939 15.89C14.8311 17.4528 12.7114 18.3307 10.5013 18.3307C5.89297 18.3307 2.16797 14.5807 2.16797 9.9974C2.16797 7.78726 3.04594 5.66764 4.60875 4.10484C6.17155 2.54204 8.29116 1.66406 10.5013 1.66406ZM10.918 5.83073V10.2057L14.668 12.4307L14.043 13.4557L9.66797 10.8307V5.83073H10.918Z" fill="#005F6B"/>
</svg>
