<svg width="16" height="16" viewBox="0 0 16 16" fill="none" xmlns="http://www.w3.org/2000/svg">
<path d="M8.00105 13.3313C9.41554 13.3313 10.7721 12.7694 11.7723 11.7692C12.7725 10.769 13.3344 9.41241 13.3344 7.99792C13.3344 6.58343 12.7725 5.22688 11.7723 4.22668C10.7721 3.22649 9.41554 2.66459 8.00105 2.66459C6.58656 2.66459 5.23001 3.22649 4.22981 4.22668C3.22962 5.22688 2.66771 6.58343 2.66771 7.99792C2.66771 9.41241 3.22962 10.769 4.22981 11.7692C5.23001 12.7694 6.58656 13.3313 8.00105 13.3313ZM8.00105 1.33125C8.87653 1.33125 9.74343 1.50369 10.5523 1.83872C11.3611 2.17375 12.096 2.66482 12.7151 3.28387C13.3342 3.90293 13.8252 4.63786 14.1602 5.4467C14.4953 6.25553 14.6677 7.12244 14.6677 7.99792C14.6677 9.76603 13.9653 11.4617 12.7151 12.712C11.4649 13.9622 9.76916 14.6646 8.00105 14.6646C4.31438 14.6646 1.33438 11.6646 1.33438 7.99792C1.33438 6.22981 2.03676 4.53412 3.287 3.28387C4.53725 2.03363 6.23294 1.33125 8.00105 1.33125ZM8.33438 4.66459V8.16459L11.3344 9.94459L10.8344 10.7646L7.33438 8.66459V4.66459H8.33438Z" fill="#005F6B"/>
</svg>
