<svg width="20" height="20" viewBox="0 0 20 20" fill="none" xmlns="http://www.w3.org/2000/svg">
<path d="M10.0013 16.6641C11.7694 16.6641 13.4651 15.9617 14.7153 14.7114C15.9656 13.4612 16.668 11.7655 16.668 9.9974C16.668 8.22929 15.9656 6.53359 14.7153 5.28335C13.4651 4.03311 11.7694 3.33073 10.0013 3.33073C8.23319 3.33073 6.5375 4.03311 5.28726 5.28335C4.03701 6.53359 3.33464 8.22929 3.33464 9.9974C3.33464 11.7655 4.03701 13.4612 5.28726 14.7114C6.5375 15.9617 8.23319 16.6641 10.0013 16.6641ZM10.0013 1.66406C11.0957 1.66406 12.1793 1.87961 13.1903 2.2984C14.2014 2.71719 15.12 3.33102 15.8939 4.10484C16.6677 4.87866 17.2815 5.79732 17.7003 6.80837C18.1191 7.81941 18.3346 8.90305 18.3346 9.9974C18.3346 12.2075 17.4567 14.3271 15.8939 15.89C14.3311 17.4528 12.2114 18.3307 10.0013 18.3307C5.39297 18.3307 1.66797 14.5807 1.66797 9.9974C1.66797 7.78726 2.54594 5.66764 4.10875 4.10484C5.67155 2.54204 7.79116 1.66406 10.0013 1.66406ZM10.418 5.83073V10.2057L14.168 12.4307L13.543 13.4557L9.16797 10.8307V5.83073H10.418Z" fill="#005F6B"/>
</svg>
