<svg width="18" height="18" viewBox="0 0 18 18" fill="none" xmlns="http://www.w3.org/2000/svg">
<path d="M9.66667 8.66667H10.6667V10.5467L12.2933 11.4867L11.7933 12.3533L9.66667 11.1267V8.66667ZM15 10.6667C15 13.2467 12.9133 15.3333 10.3333 15.3333C9.06 15.3333 7.90667 14.8267 7.06667 14H5C4.26667 14 3.66667 13.4 3.66667 12.6667V4.66667H11.6667V6.19333C13.5933 6.76667 15 8.55333 15 10.6667ZM5.66667 10.6667C5.66667 8.08667 7.75333 6 10.3333 6H5V12.6667H6.11333C5.82667 12.06 5.66667 11.38 5.66667 10.6667ZM10.3333 7.33333C8.49333 7.33333 7 8.82667 7 10.6667C7 12.5067 8.49333 14 10.3333 14C12.1733 14 13.6667 12.5067 13.6667 10.6667C13.6667 8.82667 12.1733 7.33333 10.3333 7.33333ZM10 2.66667H12.3333V4H3V2.66667H5.33333L6 2H9.33333L10 2.66667Z" fill="#005F6B"/>
</svg>
