<svg width="20" height="20" viewBox="0 0 20 20" fill="none" xmlns="http://www.w3.org/2000/svg">
<path d="M12.5013 10.8333H13.7513V13.1833L15.7846 14.3583L15.1596 15.4417L12.5013 13.9083V10.8333ZM19.168 13.3333C19.168 16.5583 16.5596 19.1667 13.3346 19.1667C11.743 19.1667 10.3013 18.5333 9.2513 17.5H6.66797C5.7513 17.5 5.0013 16.75 5.0013 15.8333V5.83333H15.0013V7.74167C17.4096 8.45833 19.168 10.6917 19.168 13.3333ZM7.5013 13.3333C7.5013 10.1083 10.1096 7.5 13.3346 7.5H6.66797V15.8333H8.05964C7.7013 15.075 7.5013 14.225 7.5013 13.3333ZM13.3346 9.16667C11.0346 9.16667 9.16797 11.0333 9.16797 13.3333C9.16797 15.6333 11.0346 17.5 13.3346 17.5C15.6346 17.5 17.5013 15.6333 17.5013 13.3333C17.5013 11.0333 15.6346 9.16667 13.3346 9.16667ZM12.918 3.33333H15.8346V5H4.16797V3.33333H7.08464L7.91797 2.5H12.0846L12.918 3.33333Z" fill="#005F6B"/>
</svg>
