<svg width="16" height="16" viewBox="0 0 16 16" fill="none" xmlns="http://www.w3.org/2000/svg">
<path d="M10.001 8.66667H11.001V10.5467L12.6277 11.4867L12.1277 12.3533L10.001 11.1267V8.66667ZM15.3344 10.6667C15.3344 13.2467 13.2477 15.3333 10.6677 15.3333C9.39438 15.3333 8.24105 14.8267 7.40105 14H5.33438C4.60105 14 4.00105 13.4 4.00105 12.6667V4.66667H12.001V6.19333C13.9277 6.76667 15.3344 8.55333 15.3344 10.6667ZM6.00105 10.6667C6.00105 8.08667 8.08771 6 10.6677 6H5.33438V12.6667H6.44771C6.16105 12.06 6.00105 11.38 6.00105 10.6667ZM10.6677 7.33333C8.82771 7.33333 7.33438 8.82667 7.33438 10.6667C7.33438 12.5067 8.82771 14 10.6677 14C12.5077 14 14.001 12.5067 14.001 10.6667C14.001 8.82667 12.5077 7.33333 10.6677 7.33333ZM10.3344 2.66667H12.6677V4H3.33438V2.66667H5.66771L6.33438 2H9.66771L10.3344 2.66667Z" fill="#005F6B"/>
</svg>
