<svg width="21" height="20" viewBox="0 0 21 20" fill="none" xmlns="http://www.w3.org/2000/svg">
<path d="M13.0013 10.8333H14.2513V13.1833L16.2846 14.3583L15.6596 15.4417L13.0013 13.9083V10.8333ZM19.668 13.3333C19.668 16.5583 17.0596 19.1667 13.8346 19.1667C12.243 19.1667 10.8013 18.5333 9.7513 17.5H7.16797C6.2513 17.5 5.5013 16.75 5.5013 15.8333V5.83333H15.5013V7.74167C17.9096 8.45833 19.668 10.6917 19.668 13.3333ZM8.0013 13.3333C8.0013 10.1083 10.6096 7.5 13.8346 7.5H7.16797V15.8333H8.55964C8.2013 15.075 8.0013 14.225 8.0013 13.3333ZM13.8346 9.16667C11.5346 9.16667 9.66797 11.0333 9.66797 13.3333C9.66797 15.6333 11.5346 17.5 13.8346 17.5C16.1346 17.5 18.0013 15.6333 18.0013 13.3333C18.0013 11.0333 16.1346 9.16667 13.8346 9.16667ZM13.418 3.33333H16.3346V5H4.66797V3.33333H7.58464L8.41797 2.5H12.5846L13.418 3.33333Z" fill="#005F6B"/>
</svg>
