<svg width="24" height="24" viewBox="0 0 24 24" fill="none" xmlns="http://www.w3.org/2000/svg">
<g clip-path="url(#clip0_629_2706)">
<path fill-rule="evenodd" clip-rule="evenodd" d="M15 5.99999C15.0002 6.6206 14.808 7.22601 14.4498 7.73284C14.0916 8.23967 13.5851 8.62298 13 8.82999V11H16C16.7957 11 17.5587 11.3161 18.1214 11.8787C18.684 12.4413 19 13.2043 19 14V15.17C19.6675 15.4059 20.2301 15.8702 20.5884 16.4808C20.9467 17.0914 21.0775 17.809 20.9578 18.5068C20.8382 19.2045 20.4757 19.8375 19.9344 20.2939C19.3931 20.7502 18.708 21.0005 18 21.0005C17.2921 21.0005 16.6069 20.7502 16.0657 20.2939C15.5244 19.8375 15.1619 19.2045 15.0422 18.5068C14.9225 17.809 15.0534 17.0914 15.4117 16.4808C15.7699 15.8702 16.3325 15.4059 17 15.17V14C17 13.7348 16.8947 13.4804 16.7071 13.2929C16.5196 13.1053 16.2652 13 16 13H8.00003C7.73481 13 7.48046 13.1053 7.29292 13.2929C7.10539 13.4804 7.00003 13.7348 7.00003 14V15.17C7.66752 15.4059 8.23012 15.8702 8.58839 16.4808C8.94666 17.0914 9.07752 17.809 8.95784 18.5068C8.83817 19.2045 8.47566 19.8375 7.9344 20.2939C7.39314 20.7502 6.70798 21.0005 6.00003 21.0005C5.29208 21.0005 4.60692 20.7502 4.06566 20.2939C3.5244 19.8375 3.16189 19.2045 3.04222 18.5068C2.92254 17.809 3.0534 17.0914 3.41167 16.4808C3.76994 15.8702 4.33254 15.4059 5.00003 15.17V14C5.00003 13.2043 5.3161 12.4413 5.87871 11.8787C6.44132 11.3161 7.20438 11 8.00003 11H11V8.82999C10.4812 8.64682 10.0227 8.32453 9.67464 7.89836C9.3266 7.47218 9.10243 6.95852 9.02664 6.41353C8.95084 5.86854 9.02634 5.31321 9.24488 4.80823C9.46342 4.30326 9.81658 3.86809 10.2658 3.55029C10.7149 3.2325 11.2428 3.04431 11.7918 3.00631C12.3407 2.96831 12.8895 3.08195 13.3782 3.33482C13.8669 3.58769 14.2766 3.97004 14.5627 4.44008C14.8487 4.91012 15 5.44975 15 5.99999ZM12 4.99999C11.7348 4.99999 11.4805 5.10534 11.2929 5.29288C11.1054 5.48042 11 5.73477 11 5.99999C11 6.2652 11.1054 6.51956 11.2929 6.70709C11.4805 6.89463 11.7348 6.99999 12 6.99999C12.2652 6.99999 12.5196 6.89463 12.7071 6.70709C12.8947 6.51956 13 6.2652 13 5.99999C13 5.73477 12.8947 5.48042 12.7071 5.29288C12.5196 5.10534 12.2652 4.99999 12 4.99999ZM6.00003 17C5.73481 17 5.48046 17.1053 5.29292 17.2929C5.10539 17.4804 5.00003 17.7348 5.00003 18C5.00003 18.2652 5.10539 18.5196 5.29292 18.7071C5.48046 18.8946 5.73481 19 6.00003 19C6.26525 19 6.5196 18.8946 6.70714 18.7071C6.89467 18.5196 7.00003 18.2652 7.00003 18C7.00003 17.7348 6.89467 17.4804 6.70714 17.2929C6.5196 17.1053 6.26525 17 6.00003 17ZM18 17C17.7348 17 17.4805 17.1053 17.2929 17.2929C17.1054 17.4804 17 17.7348 17 18C17 18.2652 17.1054 18.5196 17.2929 18.7071C17.4805 18.8946 17.7348 19 18 19C18.2652 19 18.5196 18.8946 18.7071 18.7071C18.8947 18.5196 19 18.2652 19 18C19 17.7348 18.8947 17.4804 18.7071 17.2929C18.5196 17.1053 18.2652 17 18 17Z" fill="#005F6B"/>
</g>
<defs>
<clipPath id="clip0_629_2706">
<rect width="24" height="24" fill="white"/>
</clipPath>
</defs>
</svg>
