<svg width="24" height="24" viewBox="0 0 24 24" fill="none" xmlns="http://www.w3.org/2000/svg">
<g clip-path="url(#clip0_739_209)">
<path fill-rule="evenodd" clip-rule="evenodd" d="M15 5.99987C15.0002 6.62048 14.808 7.22589 14.4498 7.73272C14.0916 8.23954 13.5851 8.62286 13 8.82987V10.9999H16C16.7957 10.9999 17.5587 11.3159 18.1214 11.8785C18.684 12.4412 19 13.2042 19 13.9999V15.1699C19.6675 15.4058 20.2301 15.8701 20.5884 16.4807C20.9467 17.0913 21.0775 17.8089 20.9578 18.5067C20.8382 19.2044 20.4757 19.8374 19.9344 20.2937C19.3931 20.7501 18.708 21.0004 18 21.0004C17.2921 21.0004 16.6069 20.7501 16.0657 20.2937C15.5244 19.8374 15.1619 19.2044 15.0422 18.5067C14.9225 17.8089 15.0534 17.0913 15.4117 16.4807C15.7699 15.8701 16.3325 15.4058 17 15.1699V13.9999C17 13.7346 16.8947 13.4803 16.7071 13.2928C16.5196 13.1052 16.2652 12.9999 16 12.9999H8.00003C7.73481 12.9999 7.48046 13.1052 7.29292 13.2928C7.10539 13.4803 7.00003 13.7346 7.00003 13.9999V15.1699C7.66752 15.4058 8.23012 15.8701 8.58839 16.4807C8.94666 17.0913 9.07752 17.8089 8.95784 18.5067C8.83817 19.2044 8.47566 19.8374 7.9344 20.2937C7.39314 20.7501 6.70798 21.0004 6.00003 21.0004C5.29208 21.0004 4.60692 20.7501 4.06566 20.2937C3.5244 19.8374 3.16189 19.2044 3.04222 18.5067C2.92254 17.8089 3.0534 17.0913 3.41167 16.4807C3.76994 15.8701 4.33254 15.4058 5.00003 15.1699V13.9999C5.00003 13.2042 5.3161 12.4412 5.87871 11.8785C6.44132 11.3159 7.20438 10.9999 8.00003 10.9999H11V8.82987C10.4812 8.6467 10.0227 8.32441 9.67464 7.89823C9.3266 7.47206 9.10243 6.9584 9.02664 6.41341C8.95084 5.86842 9.02634 5.31308 9.24488 4.80811C9.46342 4.30314 9.81658 3.86797 10.2658 3.55017C10.7149 3.23238 11.2428 3.04419 11.7918 3.00619C12.3407 2.96819 12.8895 3.08183 13.3782 3.3347C13.8669 3.58756 14.2766 3.96992 14.5627 4.43996C14.8487 4.91 15 5.44963 15 5.99987ZM12 4.99987C11.7348 4.99987 11.4805 5.10522 11.2929 5.29276C11.1054 5.4803 11 5.73465 11 5.99987C11 6.26508 11.1054 6.51944 11.2929 6.70697C11.4805 6.89451 11.7348 6.99987 12 6.99987C12.2652 6.99987 12.5196 6.89451 12.7071 6.70697C12.8947 6.51944 13 6.26508 13 5.99987C13 5.73465 12.8947 5.4803 12.7071 5.29276C12.5196 5.10522 12.2652 4.99987 12 4.99987ZM6.00003 16.9999C5.73481 16.9999 5.48046 17.1052 5.29292 17.2928C5.10539 17.4803 5.00003 17.7346 5.00003 17.9999C5.00003 18.2651 5.10539 18.5194 5.29292 18.707C5.48046 18.8945 5.73481 18.9999 6.00003 18.9999C6.26525 18.9999 6.5196 18.8945 6.70714 18.707C6.89467 18.5194 7.00003 18.2651 7.00003 17.9999C7.00003 17.7346 6.89467 17.4803 6.70714 17.2928C6.5196 17.1052 6.26525 16.9999 6.00003 16.9999ZM18 16.9999C17.7348 16.9999 17.4805 17.1052 17.2929 17.2928C17.1054 17.4803 17 17.7346 17 17.9999C17 18.2651 17.1054 18.5194 17.2929 18.707C17.4805 18.8945 17.7348 18.9999 18 18.9999C18.2652 18.9999 18.5196 18.8945 18.7071 18.707C18.8947 18.5194 19 18.2651 19 17.9999C19 17.7346 18.8947 17.4803 18.7071 17.2928C18.5196 17.1052 18.2652 16.9999 18 16.9999Z" fill="#005F6B"/>
</g>
<defs>
<clipPath id="clip0_739_209">
<rect width="24" height="24" fill="white"/>
</clipPath>
</defs>
</svg>
