<svg width="36" height="36" viewBox="0 0 36 36" fill="none" xmlns="http://www.w3.org/2000/svg">
<path d="M9.25007 10.6301C9.17209 10.6976 9.10944 10.7811 9.06632 10.8749C9.02319 10.9686 9.00058 11.0705 9 11.1737V26.3952C9 26.5874 9.07637 26.7718 9.2123 26.9077C9.34823 27.0436 9.5326 27.12 9.72483 27.12C9.91707 27.12 10.1014 27.0436 10.2374 26.9077C10.3733 26.7718 10.4497 26.5874 10.4497 26.3952V22.3877C12.8769 20.4706 14.9681 21.5044 17.3763 22.6967C18.8623 23.4315 20.4623 24.2234 22.1784 24.2234C23.4405 24.2234 24.7642 23.793 26.1486 22.5925C26.2266 22.5249 26.2893 22.4415 26.3324 22.3477C26.3755 22.254 26.3981 22.1521 26.3987 22.0489V11.1737C26.3984 11.0346 26.358 10.8985 26.2824 10.7816C26.2069 10.6648 26.0993 10.5722 25.9725 10.5149C25.8457 10.4576 25.7051 10.438 25.5675 10.4584C25.4299 10.4788 25.3011 10.5384 25.1964 10.6301C22.6595 12.8254 20.5103 11.7617 18.0196 10.5286C15.4392 9.24925 12.5136 7.8023 9.25007 10.6301ZM24.9463 21.7064C22.519 23.6236 20.4279 22.5889 18.0196 21.3974C15.7545 20.2785 13.2348 19.03 10.4497 20.6364V11.5171C12.8769 9.59988 14.9681 10.6337 17.3763 11.8251C19.6415 12.9441 22.1621 14.1926 24.9463 12.5862V21.7064Z" fill="#005F6B"/>
</svg>
