<svg width="20" height="20" viewBox="0 0 20 20" fill="none" xmlns="http://www.w3.org/2000/svg">
<path d="M1.25007 2.62987C1.17209 2.69746 1.10944 2.78092 1.06632 2.87467C1.02319 2.96842 1.00058 3.0703 1 3.17349V18.395C1 18.5872 1.07637 18.7716 1.2123 18.9075C1.34823 19.0435 1.5326 19.1198 1.72483 19.1198C1.91707 19.1198 2.10143 19.0435 2.23737 18.9075C2.3733 18.7716 2.44967 18.5872 2.44967 18.395V14.3876C4.87695 12.4704 6.96809 13.5042 9.37635 14.6965C10.8623 15.4313 12.4623 16.2232 14.1784 16.2232C15.4405 16.2232 16.7642 15.7928 18.1486 14.5923C18.2266 14.5247 18.2893 14.4413 18.3324 14.3475C18.3755 14.2538 18.3981 14.1519 18.3987 14.0487V3.17349C18.3984 3.03437 18.358 2.89828 18.2824 2.78147C18.2069 2.66466 18.0993 2.57207 17.9725 2.51475C17.8457 2.45743 17.7051 2.4378 17.5675 2.45822C17.4299 2.47863 17.3011 2.53822 17.1964 2.62987C14.6595 4.82521 12.5103 3.76152 10.0196 2.52839C7.43923 1.24906 4.51363 -0.197884 1.25007 2.62987ZM16.9463 13.7062C14.519 15.6234 12.4279 14.5887 10.0196 13.3973C7.75454 12.2783 5.23484 11.0298 2.44967 12.6362V3.51688C4.87695 1.5997 6.96809 2.63349 9.37635 3.82494C11.6415 4.9439 14.1621 6.19242 16.9463 4.58601V13.7062Z" fill="#005F6B"/>
</svg>
