<svg width="36" height="36" viewBox="0 0 36 36" fill="none" xmlns="http://www.w3.org/2000/svg">
<path d="M9.25007 10.6299C9.17209 10.6975 9.10944 10.7809 9.06632 10.8747C9.02319 10.9684 9.00058 11.0703 9 11.1735V26.395C9 26.5872 9.07637 26.7716 9.2123 26.9075C9.34823 27.0435 9.5326 27.1198 9.72483 27.1198C9.91707 27.1198 10.1014 27.0435 10.2374 26.9075C10.3733 26.7716 10.4497 26.5872 10.4497 26.395V22.3876C12.8769 20.4704 14.9681 21.5042 17.3763 22.6965C18.8623 23.4313 20.4623 24.2232 22.1784 24.2232C23.4405 24.2232 24.7642 23.7928 26.1486 22.5923C26.2266 22.5247 26.2893 22.4413 26.3324 22.3475C26.3755 22.2538 26.3981 22.1519 26.3987 22.0487V11.1735C26.3984 11.0344 26.358 10.8983 26.2824 10.7815C26.2069 10.6647 26.0993 10.5721 25.9725 10.5147C25.8457 10.4574 25.7051 10.4378 25.5675 10.4582C25.4299 10.4786 25.3011 10.5382 25.1964 10.6299C22.6595 12.8252 20.5103 11.7615 18.0196 10.5284C15.4392 9.24906 12.5136 7.80212 9.25007 10.6299ZM24.9463 21.7062C22.519 23.6234 20.4279 22.5887 18.0196 21.3973C15.7545 20.2783 13.2348 19.0298 10.4497 20.6362V11.5169C12.8769 9.5997 14.9681 10.6335 17.3763 11.8249C19.6415 12.9439 22.1621 14.1924 24.9463 12.586V21.7062Z" fill="#005F6B"/>
</svg>
