<svg width="18" height="18" viewBox="0 0 18 18" fill="none" xmlns="http://www.w3.org/2000/svg">
<path d="M3.00656 3.51563C2.94605 3.56808 2.89743 3.63285 2.86397 3.7056C2.8305 3.77836 2.81295 3.85742 2.8125 3.9375V15.75C2.8125 15.8992 2.87176 16.0423 2.97725 16.1477C3.08274 16.2532 3.22582 16.3125 3.375 16.3125C3.52418 16.3125 3.66726 16.2532 3.77275 16.1477C3.87824 16.0423 3.9375 15.8992 3.9375 15.75V12.6401C5.82117 11.1523 7.44398 11.9545 9.31289 12.8798C10.466 13.4501 11.7077 14.0646 13.0395 14.0646C14.0189 14.0646 15.0462 13.7306 16.1205 12.799C16.1811 12.7465 16.2297 12.6818 16.2631 12.609C16.2966 12.5363 16.3142 12.4572 16.3146 12.3771V3.9375C16.3144 3.82953 16.283 3.72392 16.2244 3.63327C16.1657 3.54262 16.0822 3.47077 15.9839 3.42628C15.8855 3.3818 15.7764 3.36657 15.6696 3.38242C15.5628 3.39826 15.4628 3.4445 15.3816 3.51563C13.4128 5.2193 11.745 4.39383 9.81211 3.43688C7.80961 2.44406 5.53922 1.32117 3.00656 3.51563ZM15.1875 12.1113C13.3038 13.5991 11.681 12.7962 9.81211 11.8716C8.0543 11.0032 6.09891 10.0343 3.9375 11.2809V4.20398C5.82117 2.71617 7.44398 3.51844 9.31289 4.44305C11.0707 5.31141 13.0268 6.28031 15.1875 5.03367V12.1113Z" fill="#005F6B"/>
</svg>
