<svg width="20" height="20" viewBox="0 0 20 20" fill="none" xmlns="http://www.w3.org/2000/svg">
<path d="M18.6859 7.59845C18.6078 7.35824 18.4603 7.14652 18.2621 6.98998C18.0638 6.83343 17.8237 6.73907 17.5719 6.71876L12.9625 6.34689L11.1828 2.04298C11.0866 1.80846 10.9228 1.60786 10.7122 1.46668C10.5017 1.3255 10.2539 1.25012 10.0004 1.25012C9.7469 1.25012 9.49912 1.3255 9.28858 1.46668C9.07803 1.60786 8.91422 1.80846 8.81798 2.04298L7.03985 6.34611L2.42813 6.71876C2.17593 6.74009 1.93562 6.83538 1.73733 6.99267C1.53904 7.14997 1.39157 7.36229 1.31341 7.60303C1.23525 7.84376 1.22987 8.10221 1.29795 8.34599C1.36602 8.58977 1.50452 8.80804 1.6961 8.97345L5.21173 12.007L4.14063 16.543C4.08073 16.7894 4.0954 17.0481 4.18277 17.2862C4.27015 17.5242 4.42629 17.731 4.63138 17.8801C4.83647 18.0293 5.08126 18.1142 5.33468 18.124C5.58809 18.1338 5.8387 18.0681 6.05469 17.9352L10 15.507L13.9477 17.9352C14.1637 18.0665 14.4138 18.1309 14.6665 18.1204C14.9191 18.1099 15.163 18.0248 15.3673 17.876C15.5717 17.7271 15.7275 17.5211 15.8151 17.2839C15.9026 17.0467 15.9181 16.7889 15.8594 16.543L14.7844 12.0063L18.3 8.97267C18.4931 8.80753 18.6329 8.58879 18.7016 8.34415C18.7703 8.09951 18.7649 7.83999 18.6859 7.59845ZM17.4875 8.02579L13.6828 11.307C13.5961 11.3818 13.5315 11.479 13.4962 11.588C13.461 11.697 13.4563 11.8136 13.4828 11.925L14.6453 16.8313C14.6483 16.838 14.6486 16.8457 14.6462 16.8527C14.6437 16.8596 14.6386 16.8654 14.632 16.8688C14.618 16.8797 14.6141 16.8774 14.6024 16.8688L10.3274 14.2399C10.2289 14.1793 10.1156 14.1473 10 14.1473C9.88443 14.1473 9.77112 14.1793 9.67266 14.2399L5.39766 16.8703C5.38594 16.8774 5.38282 16.8797 5.36798 16.8703C5.36138 16.867 5.35633 16.8612 5.35386 16.8542C5.35139 16.8472 5.35169 16.8396 5.35469 16.8328L6.51719 11.9266C6.54369 11.8151 6.53905 11.6986 6.50377 11.5896C6.4685 11.4806 6.40396 11.3834 6.31719 11.3086L2.51251 8.02736C2.50313 8.01954 2.49454 8.01251 2.50235 7.98829C2.51016 7.96408 2.51641 7.9672 2.52813 7.96564L7.52188 7.56251C7.63642 7.55269 7.74603 7.51146 7.83866 7.44337C7.93128 7.37528 8.00333 7.28297 8.04688 7.17658L9.97032 2.51954C9.97657 2.50626 9.97891 2.50001 9.99766 2.50001C10.0164 2.50001 10.0188 2.50626 10.025 2.51954L11.9531 7.17658C11.9971 7.28301 12.0696 7.37522 12.1627 7.44305C12.2557 7.51088 12.3657 7.55168 12.4805 7.56095L17.4742 7.96408C17.4859 7.96408 17.493 7.96408 17.5 7.98673C17.507 8.00939 17.5 8.01798 17.4875 8.02579Z" fill="#005F6B"/>
</svg>
