<svg width="20" height="20" viewBox="0 0 20 20" fill="none" xmlns="http://www.w3.org/2000/svg">
<path d="M1.66667 10C1.66667 14.6025 5.39751 18.3334 10 18.3334C14.6025 18.3334 18.3333 14.6025 18.3333 10C18.3333 5.39752 14.6025 1.66669 10 1.66669C5.39751 1.66669 1.66667 5.39752 1.66667 10ZM16.6667 10C16.6667 11.7681 15.9643 13.4638 14.7141 14.7141C13.4638 15.9643 11.7681 16.6667 10 16.6667C8.23189 16.6667 6.5362 15.9643 5.28596 14.7141C4.03572 13.4638 3.33334 11.7681 3.33334 10C3.33334 8.23191 4.03572 6.53622 5.28596 5.28598C6.5362 4.03573 8.23189 3.33335 10 3.33335C11.7681 3.33335 13.4638 4.03573 14.7141 5.28598C15.9643 6.53622 16.6667 8.23191 16.6667 10ZM10 10V5.00002C10.6568 4.99903 11.3073 5.12788 11.9141 5.37915C12.5209 5.63043 13.072 5.99917 13.5358 6.46419L10 10Z" fill="#005F6B"/>
</svg>
